# xmcd
#
# Track frame offsets: 
#        150
#        16747
#        29306
#        48916
#        57751
#        85218
#        104213
#        126914
#        152409
#        167643
#        171904
#        186029
#        200100
#        211539
#        220862
#        234503
#
# Disc length: 3318 seconds
#
# Revision: 0
# Processed by: cddbd v1.5.2PL0 Copyright (c) Steve Scherf et al.
# Submitted via: ExactAudioCopy v0.99pb5
#
DISCID=d30cf410
DTITLE=Jethro Tull  - This Was - Disc 2
DYEAR=1900
DGENRE=
TTITLE0=My Sunday Feeling
TTITLE1=Some Day The Sun Won't Shine
TTITLE2=Beggar's Farm
TTITLE3=Move On Alone
TTITLE4=Serenade To A Cuckoo
TTITLE5=Dharma For One
TTITLE6=It's Breaking Me Up
TTITLE7=Cat's Squirrel
TTITLE8=A Song For Jeffrey
TTITLE9=Round
TTITLE10=Love Story
TTITLE11=Christmas Song
TTITLE12=Sunshine Day
TTITLE13=One For John Gee
TTITLE14=Love Story
TTITLE15=Christmas Song
EXTD=
EXTT0=
EXTT1=
EXTT2=
EXTT3=
EXTT4=
EXTT5=
EXTT6=
EXTT7=
EXTT8=
EXTT9=
EXTT10=
EXTT11=
EXTT12=
EXTT13=
EXTT14=
EXTT15=
PLAYORDER=
